# xmcd CD database file
#
# Track frame offsets:
#	182
#	13632
#	30170
#	48202
#	64430
#	81890
#	94300
#	109317
#	127792
#	141950
#	156202
#	172392
#
# Disc length: 2491 seconds
#
# Revision: 8
# Processed by: cddbd v1.5.2PL0 Copyright (c) Steve Scherf et al.
# Submitted via: CDex 1.79
#
DISCID=9f09b90c
DTITLE=Emmylou Harris - Duets
DYEAR=1990
DGENRE=Country
TTITLE0=The Price I Pay (with Desert Rose Band)
TTITLE1=Love Hurts (with Gram Parsons)
TTITLE2=That Lovin You Feelin Again (with Roy Orbison)
TTITLE3=We Believe In Happy Endings (with Earl Thomas Conley)
TTITLE4=Thing About You (with Southern Pacific)
TTITLE5=Star Of Bethlehem (with Neil Young)
TTITLE6=All Fall Down (with George Jones)
TTITLE7=Wild Montana Skies (with John Denver)
TTITLE8=Green Pastures (with Ricky Scaggs)
TTITLE9=Gulf Coast Highway (with Willie Nelson)
TTITLE10=If I Needed You (with Don Williams)
TTITLE11=Evangeline (with The Band)
EXTD=YEAR: 1990
EXTT0=
EXTT1=
EXTT2=
EXTT3=
EXTT4=
EXTT5=
EXTT6=
EXTT7=
EXTT8=
EXTT9=
EXTT10=
EXTT11=
PLAYORDER=
